<?xml version="1.0" standalone="no"?>
<!DOCTYPE svg PUBLIC "-//W3C//DTD SVG 20010904//EN"
 "http://www.w3.org/TR/2001/REC-SVG-20010904/DTD/svg10.dtd">
<svg version="1.0" xmlns="http://www.w3.org/2000/svg"
 width="251.000000pt" height="201.000000pt" viewBox="0 0 251.000000 201.000000"
 preserveAspectRatio="xMidYMid meet">

<g transform="translate(0.000000,201.000000) scale(0.100000,-0.100000)"
fill="#000000" stroke="none">
<path d="M1155 1550 c-27 -16 -56 -37 -62 -47 -14 -18 -17 -73 -7 -110 6 -22
7 -21 31 7 29 35 45 36 93 11 34 -18 35 -18 78 3 l44 21 25 -30 c25 -28 25
-29 6 -44 -10 -9 -22 -24 -26 -34 -4 -9 -17 -22 -29 -27 -16 -6 -18 -9 -7 -9
28 -1 88 82 95 133 11 74 1 92 -66 126 -74 37 -111 37 -175 0z"/>
<path d="M1158 1373 c7 -3 16 -2 19 1 4 3 -2 6 -13 5 -11 0 -14 -3 -6 -6z"/>
<path d="M1298 1373 c7 -3 16 -2 19 1 4 3 -2 6 -13 5 -11 0 -14 -3 -6 -6z"/>
<path d="M1116 1338 c16 -28 38 -48 53 -47 10 0 7 4 -7 10 -13 5 -26 18 -29
29 -3 11 -10 20 -15 20 -5 0 -6 -6 -2 -12z"/>
<path d="M1200 1335 c0 -5 16 -10 35 -10 19 0 35 5 35 10 0 6 -16 10 -35 10
-19 0 -35 -4 -35 -10z"/>
<path d="M1092 1262 c4 -37 12 -60 29 -78 30 -32 91 -64 122 -64 25 0 109 49
123 72 10 15 23 118 15 118 -3 0 -24 -18 -46 -40 -37 -36 -43 -39 -55 -25 -16
19 -64 19 -80 0 -12 -14 -16 -13 -39 7 -14 13 -37 32 -50 43 l-24 20 5 -53z"/>
<path d="M991 1123 c-74 -37 -203 -210 -285 -383 -68 -145 -68 -142 1 -173 32
-14 71 -29 87 -33 24 -6 27 -4 23 12 -14 43 -47 219 -47 245 0 18 10 36 31 53
l31 26 408 0 408 0 31 -26 c38 -32 39 -50 7 -201 -13 -62 -19 -113 -14 -113
17 0 133 42 146 53 9 7 12 22 8 40 -19 93 -195 387 -275 460 -22 20 -58 41
-81 48 -36 11 -49 10 -98 -7 -31 -10 -60 -18 -64 -16 -5 1 -8 -1 -8 -6 0 -4
-15 -16 -34 -26 -33 -17 -35 -17 -62 0 -16 10 -32 23 -36 29 -4 5 -8 7 -8 3 0
-3 -23 2 -50 13 -61 23 -75 23 -119 2z"/>
<path d="M1940 735 c0 -8 -4 -15 -10 -15 -5 0 -10 -7 -10 -16 0 -14 14 -15
100 -12 55 1 100 6 100 10 0 4 -8 17 -17 28 -15 17 -30 20 -90 20 -58 0 -73
-3 -73 -15z"/>
<path d="M1935 581 c4 -25 9 -48 11 -51 3 -2 36 -5 74 -6 76 -2 72 -5 84 67
l6 36 -40 -10 c-28 -8 -55 -8 -91 -1 l-51 11 7 -46z m103 -8 c-2 -10 -10 -18
-18 -18 -8 0 -16 8 -18 18 -2 12 3 17 18 17 15 0 20 -5 18 -17z"/>
<path d="M600 563 c8 -3 18 -10 21 -16 4 -5 15 -7 25 -2 18 7 18 8 -1 15 -11
5 -29 9 -40 9 -14 -1 -16 -2 -5 -6z"/>
<path d="M565 530 c-13 -5 -14 -9 -5 -9 8 0 24 4 35 9 13 5 14 9 5 9 -8 0 -24
-4 -35 -9z"/>
<path d="M450 499 c-65 -19 -160 -18 -129 2 8 5 10 9 4 9 -5 0 -16 -4 -24 -9
-46 -30 98 -32 184 -3 77 26 51 27 -35 1z"/>
</g>
</svg>
